<svg xmlns="http://www.w3.org/2000/svg" xmlns:xlink="http://www.w3.org/1999/xlink" width="300" zoomAndPan="magnify" viewBox="0 0 224.87999 225" height="300" preserveAspectRatio="xMidYMid meet" version="1.2"><defs><clipPath id="7d350c40c7"><path d="M 0 0.0585938 L 224.761719 0.0585938 L 224.761719 224.9375 L 0 224.9375 Z M 0 0.0585938 "/></clipPath><clipPath id="98b4c26167"><path d="M 146.488281 70.574219 L 222.949219 70.574219 L 222.949219 116.300781 L 146.488281 116.300781 Z M 146.488281 70.574219 "/></clipPath><clipPath id="e76f8c46aa"><path d="M 170 83.957031 L 199 83.957031 L 199 103 L 170 103 Z M 170 83.957031 "/></clipPath><clipPath id="6c2cf9a863"><path d="M 4.035156 78.582031 L 64 78.582031 L 64 116.8125 L 4.035156 116.8125 Z M 4.035156 78.582031 "/></clipPath><clipPath id="6ccaad700b"><path d="M 83.394531 82 L 126.871094 82 L 126.871094 120 L 83.394531 120 Z M 83.394531 82 "/></clipPath></defs><g id="01b3933ad2"><g clip-rule="nonzero" clip-path="url(#7d350c40c7)"><path style=" stroke:none;fill-rule:nonzero;fill:#ffffff;fill-opacity:1;" d="M 0 0.0585938 L 224.878906 0.0585938 L 224.878906 224.941406 L 0 224.941406 Z M 0 0.0585938 "/><path style=" stroke:none;fill-rule:nonzero;fill:#ffffff;fill-opacity:1;" d="M 0 0.0585938 L 224.878906 0.0585938 L 224.878906 224.941406 L 0 224.941406 Z M 0 0.0585938 "/></g><g clip-rule="nonzero" clip-path="url(#98b4c26167)"><path style=" stroke:none;fill-rule:nonzero;fill:#1a1a1a;fill-opacity:1;" d="M 155.640625 70.574219 C 154.460938 70.574219 153.511719 71.496094 153.511719 72.640625 L 153.511719 110.417969 C 153.511719 111.503906 153.355469 112.390625 154.355469 112.476562 L 147.355469 112.476562 C 146.527344 112.476562 146.949219 113.113281 146.949219 113.910156 L 146.949219 114.867188 C 146.949219 115.660156 147.617188 116.300781 148.445312 116.300781 L 220.992188 116.300781 C 221.820312 116.300781 222.484375 115.660156 222.484375 114.867188 L 222.484375 113.910156 C 222.484375 113.113281 222.910156 112.476562 222.082031 112.476562 L 215.078125 112.476562 C 216.078125 112.390625 215.925781 111.503906 215.925781 110.417969 L 215.925781 72.640625 C 215.925781 71.496094 214.972656 70.574219 213.792969 70.574219 Z M 174.050781 71.074219 C 174.351562 71.074219 174.597656 71.3125 174.597656 71.605469 C 174.597656 71.898438 174.351562 72.136719 174.050781 72.136719 C 173.746094 72.136719 173.5 71.898438 173.5 71.605469 C 173.5 71.3125 173.746094 71.074219 174.050781 71.074219 Z M 155.589844 72.644531 L 213.84375 72.644531 L 213.84375 110.414062 L 155.589844 110.414062 Z M 175.246094 112.480469 L 194.1875 112.480469 C 194.160156 112.882812 193.878906 113.195312 193.535156 113.195312 L 175.902344 113.195312 C 175.558594 113.195312 175.277344 112.882812 175.246094 112.480469 Z M 213.707031 113.613281 C 214.152344 113.613281 214.511719 113.960938 214.511719 114.386719 C 214.511719 114.816406 214.152344 115.160156 213.707031 115.160156 C 213.257812 115.160156 212.898438 114.816406 212.898438 114.386719 C 212.898438 113.960938 213.257812 113.613281 213.707031 113.613281 Z M 216.253906 113.613281 C 216.699219 113.613281 217.0625 113.960938 217.0625 114.386719 C 217.0625 114.816406 216.699219 115.160156 216.253906 115.160156 C 215.808594 115.160156 215.445312 114.816406 215.445312 114.386719 C 215.445312 113.960938 215.808594 113.613281 216.253906 113.613281 Z M 218.800781 113.613281 C 219.246094 113.613281 219.609375 113.960938 219.609375 114.386719 C 219.609375 114.816406 219.246094 115.160156 218.800781 115.160156 C 218.355469 115.160156 217.992188 114.816406 217.992188 114.386719 C 217.992188 113.960938 218.355469 113.613281 218.800781 113.613281 Z M 150.171875 114.125 L 154.410156 114.125 C 154.617188 114.125 154.785156 114.242188 154.785156 114.386719 C 154.785156 114.53125 154.617188 114.648438 154.410156 114.648438 L 150.171875 114.648438 C 149.964844 114.648438 149.800781 114.53125 149.800781 114.386719 C 149.800781 114.242188 149.964844 114.125 150.171875 114.125 Z M 150.171875 114.125 "/></g><g clip-rule="nonzero" clip-path="url(#e76f8c46aa)"><path style=" stroke:none;fill-rule:nonzero;fill:#004aad;fill-opacity:1;" d="M 197.621094 92.777344 C 196.398438 88.109375 194.984375 85.035156 191.734375 84.152344 C 191.238281 84.019531 190.773438 83.953125 190.308594 83.953125 C 189.328125 83.953125 188.539062 84.246094 187.773438 84.535156 C 187.070312 84.796875 186.28125 85.085938 185.195312 85.183594 L 184.382812 85.207031 C 184.382812 85.210938 181.925781 84.851562 181.070312 84.53125 C 180.308594 84.246094 179.519531 83.949219 178.542969 83.949219 C 178.078125 83.949219 177.609375 84.015625 177.113281 84.152344 C 173.859375 85.035156 172.449219 88.105469 171.230469 92.777344 C 169.8125 98.1875 170.203125 101.8125 172.304688 102.726562 C 172.644531 102.878906 173.003906 102.953125 173.371094 102.953125 C 175.238281 102.953125 176.957031 100.992188 178.210938 99.554688 L 178.550781 99.160156 C 179.574219 97.964844 181.714844 97.277344 184.425781 97.277344 C 187.371094 97.277344 189.183594 97.859375 190.296875 99.164062 L 190.640625 99.558594 C 191.890625 100.992188 193.609375 102.953125 195.476562 102.953125 C 195.84375 102.953125 196.203125 102.875 196.542969 102.726562 C 198.644531 101.8125 199.035156 98.1875 197.621094 92.777344 Z M 179.964844 93.144531 L 178.5625 93.144531 L 178.5625 94.5 C 178.5625 95 178.125 95.417969 177.605469 95.417969 C 177.085938 95.417969 176.648438 95 176.648438 94.5 L 176.648438 93.144531 L 175.332031 93.144531 C 174.835938 93.144531 174.414062 92.703125 174.414062 92.1875 C 174.414062 91.667969 174.835938 91.226562 175.332031 91.226562 L 176.648438 91.226562 L 176.648438 89.871094 C 176.648438 89.371094 177.085938 88.953125 177.605469 88.953125 C 178.125 88.953125 178.5625 89.371094 178.5625 89.871094 L 178.5625 91.226562 L 179.964844 91.226562 C 180.460938 91.226562 180.882812 91.667969 180.882812 92.1875 C 180.882812 92.703125 180.460938 93.144531 179.964844 93.144531 Z M 189.917969 94.808594 C 189.140625 94.808594 188.507812 94.179688 188.507812 93.402344 C 188.507812 92.625 189.140625 91.996094 189.917969 91.996094 C 190.691406 91.996094 191.320312 92.625 191.320312 93.402344 C 191.320312 94.179688 190.691406 94.808594 189.917969 94.808594 Z M 192.539062 92.183594 C 191.765625 92.183594 191.132812 91.554688 191.132812 90.777344 C 191.132812 90.003906 191.765625 89.371094 192.539062 89.371094 C 193.316406 89.371094 193.945312 90.003906 193.945312 90.777344 C 193.945312 91.554688 193.316406 92.183594 192.539062 92.183594 Z M 192.539062 92.183594 "/></g><g clip-rule="nonzero" clip-path="url(#6c2cf9a863)"><path style=" stroke:none;fill-rule:nonzero;fill:#004aad;fill-opacity:1;" d="M 63.558594 100.480469 C 63.558594 101.628906 62.625 102.5625 61.476562 102.5625 L 53.152344 102.5625 C 52.257812 102.5625 51.460938 101.988281 51.179688 101.140625 L 50.664062 99.59375 L 46.847656 114.859375 C 46.621094 115.757812 45.832031 116.402344 44.90625 116.4375 C 44.878906 116.4375 44.851562 116.4375 44.828125 116.4375 C 43.933594 116.4375 43.136719 115.867188 42.851562 115.015625 L 33.726562 87.636719 L 24.601562 115.015625 C 24.308594 115.890625 23.507812 116.492188 22.546875 116.4375 C 21.621094 116.402344 20.832031 115.757812 20.609375 114.859375 L 16.789062 99.59375 L 16.277344 101.140625 C 15.992188 101.988281 15.199219 102.5625 14.300781 102.5625 L 5.976562 102.5625 C 4.828125 102.5625 3.894531 101.628906 3.894531 100.480469 C 3.894531 99.332031 4.828125 98.398438 5.976562 98.398438 L 12.800781 98.398438 L 15.101562 91.496094 C 15.394531 90.621094 16.203125 90.042969 17.15625 90.074219 C 18.082031 90.109375 18.871094 90.753906 19.09375 91.648438 L 22.914062 106.917969 L 31.753906 80.398438 C 32.035156 79.546875 32.832031 78.972656 33.726562 78.972656 C 34.621094 78.972656 35.417969 79.546875 35.699219 80.398438 L 44.539062 106.917969 L 48.359375 91.648438 C 48.582031 90.753906 49.371094 90.109375 50.296875 90.074219 C 51.25 90.035156 52.058594 90.621094 52.351562 91.496094 L 54.652344 98.398438 L 61.476562 98.398438 C 62.625 98.398438 63.558594 99.332031 63.558594 100.480469 Z M 63.558594 100.480469 "/></g><path style="fill:none;stroke-width:2;stroke-linecap:butt;stroke-linejoin:miter;stroke:#000000;stroke-opacity:1;stroke-miterlimit:4;" d="M -0.00169755 1.002265 L 16.381275 1.002265 " transform="matrix(0.733422,-0.000000000000001182,0.000000000000001182,0.733422,67.927026,100.175074)"/><path style="fill:none;stroke-width:2;stroke-linecap:round;stroke-linejoin:round;stroke:#000000;stroke-opacity:1;stroke-miterlimit:4;" d="M 12.381401 -2.001635 L 16.381275 1.002265 L 12.381401 4.000839 " transform="matrix(0.733422,-0.000000000000001182,0.000000000000001182,0.733422,67.927026,100.175074)"/><g clip-rule="nonzero" clip-path="url(#6ccaad700b)"><path style=" stroke:none;fill-rule:nonzero;fill:#004aad;fill-opacity:1;" d="M 123.648438 92.480469 C 123.527344 91.832031 123.3125 91.214844 123 90.632812 C 122.6875 90.050781 122.296875 89.527344 121.820312 89.066406 C 121.347656 88.605469 120.8125 88.230469 120.21875 87.9375 C 119.628906 87.640625 119.003906 87.445312 118.351562 87.347656 C 118.058594 86.875 117.695312 86.464844 117.261719 86.117188 C 116.832031 85.765625 116.355469 85.496094 115.835938 85.304688 C 115.3125 85.113281 114.777344 85.011719 114.222656 85 C 113.667969 84.984375 113.125 85.0625 112.59375 85.230469 C 112.152344 84.589844 111.597656 84.0625 110.941406 83.648438 C 110.28125 83.234375 109.566406 82.964844 108.796875 82.839844 C 107.515625 82.710938 106.339844 83.007812 105.265625 83.722656 C 104.816406 83.339844 104.3125 83.046875 103.757812 82.847656 C 103.203125 82.644531 102.628906 82.546875 102.035156 82.554688 C 101.445312 82.5625 100.875 82.671875 100.324219 82.886719 C 99.773438 83.105469 99.277344 83.410156 98.835938 83.804688 C 98.277344 83.683594 97.714844 83.644531 97.148438 83.6875 C 96.578125 83.734375 96.027344 83.859375 95.496094 84.066406 C 94.964844 84.273438 94.472656 84.550781 94.023438 84.902344 C 93.574219 85.253906 93.1875 85.664062 92.859375 86.128906 C 92.035156 86.140625 91.242188 86.308594 90.488281 86.636719 C 89.730469 86.964844 89.066406 87.425781 88.492188 88.015625 C 87.574219 89.082031 87.082031 90.316406 87.015625 91.722656 C 86.292969 91.929688 85.648438 92.28125 85.082031 92.78125 C 84.519531 93.277344 84.089844 93.875 83.792969 94.566406 C 83.582031 95.28125 83.519531 96.007812 83.601562 96.746094 C 83.683594 97.488281 83.90625 98.179688 84.269531 98.832031 C 83.949219 99.664062 83.789062 100.527344 83.785156 101.421875 C 83.78125 102.3125 83.933594 103.179688 84.242188 104.015625 C 84.578125 104.730469 85.035156 105.351562 85.621094 105.882812 C 86.207031 106.410156 86.871094 106.808594 87.613281 107.070312 C 87.675781 108.042969 87.851562 108.992188 88.144531 109.921875 C 89.347656 113.820312 93.207031 114.808594 95.742188 114.808594 L 95.808594 114.808594 L 95.367188 118.242188 C 95.339844 118.445312 95.390625 118.628906 95.515625 118.789062 C 95.640625 118.949219 95.800781 119.042969 96.003906 119.070312 C 96.039062 119.070312 96.070312 119.070312 96.101562 119.070312 C 96.289062 119.070312 96.453125 119.011719 96.59375 118.886719 C 96.734375 118.765625 96.816406 118.609375 96.839844 118.425781 L 97.390625 114.109375 C 97.417969 113.871094 97.351562 113.667969 97.179688 113.5 C 97.015625 113.324219 96.8125 113.253906 96.570312 113.28125 C 96.339844 113.308594 90.914062 113.875 89.554688 109.484375 C 88.277344 105.351562 89.585938 101.976562 93.050781 100.457031 C 93.242188 100.378906 93.378906 100.246094 93.457031 100.054688 C 93.539062 99.859375 93.535156 99.667969 93.453125 99.476562 C 93.367188 99.285156 93.230469 99.15625 93.035156 99.082031 C 92.839844 99.007812 92.648438 99.015625 92.460938 99.105469 C 91.8125 99.375 91.210938 99.726562 90.65625 100.15625 C 90.101562 100.585938 89.613281 101.082031 89.191406 101.640625 C 88.769531 102.203125 88.429688 102.808594 88.167969 103.460938 C 87.910156 104.113281 87.738281 104.789062 87.660156 105.484375 C 86.730469 105.050781 86.046875 104.367188 85.609375 103.4375 C 85.109375 101.964844 85.15625 100.511719 85.757812 99.074219 C 85.859375 98.835938 85.84375 98.605469 85.707031 98.382812 C 85.070312 97.351562 84.894531 96.246094 85.179688 95.070312 C 85.453125 94.519531 85.835938 94.058594 86.328125 93.6875 C 86.816406 93.316406 87.367188 93.074219 87.972656 92.960938 C 88.136719 92.910156 88.265625 92.816406 88.363281 92.675781 C 88.460938 92.53125 88.503906 92.375 88.492188 92.207031 C 88.457031 90.996094 88.824219 89.925781 89.59375 88.996094 C 90.085938 88.515625 90.652344 88.152344 91.292969 87.902344 C 91.933594 87.65625 92.597656 87.546875 93.285156 87.574219 C 93.546875 87.566406 93.75 87.449219 93.886719 87.226562 C 94.136719 86.820312 94.445312 86.464844 94.808594 86.160156 C 95.175781 85.855469 95.578125 85.613281 96.019531 85.441406 C 96.464844 85.265625 96.921875 85.164062 97.398438 85.140625 C 97.871094 85.113281 98.339844 85.164062 98.800781 85.289062 C 101.765625 86.242188 101.152344 89.605469 101.125 89.75 C 101.082031 89.949219 101.117188 90.132812 101.230469 90.304688 C 101.34375 90.472656 101.5 90.578125 101.699219 90.621094 C 101.898438 90.660156 102.085938 90.625 102.253906 90.511719 C 102.425781 90.398438 102.53125 90.242188 102.570312 90.042969 C 102.6875 89.523438 102.726562 88.996094 102.691406 88.460938 C 102.652344 87.929688 102.535156 87.414062 102.347656 86.914062 C 102.15625 86.417969 101.898438 85.957031 101.570312 85.535156 C 101.242188 85.109375 100.863281 84.746094 100.429688 84.433594 C 100.777344 84.257812 101.144531 84.140625 101.535156 84.082031 C 101.921875 84.027344 102.308594 84.03125 102.691406 84.097656 C 103.078125 84.164062 103.445312 84.292969 103.789062 84.476562 C 104.132812 84.664062 104.441406 84.898438 104.707031 85.179688 C 104.847656 85.316406 105.011719 85.386719 105.203125 85.394531 C 105.398438 85.402344 105.566406 85.339844 105.710938 85.214844 C 106.566406 84.523438 107.539062 84.21875 108.636719 84.300781 C 109.285156 84.433594 109.875 84.695312 110.414062 85.085938 C 110.949219 85.472656 111.382812 85.953125 111.710938 86.527344 C 111.808594 86.671875 111.941406 86.765625 112.109375 86.816406 C 112.273438 86.863281 112.4375 86.855469 112.597656 86.792969 C 113.015625 86.613281 113.449219 86.519531 113.902344 86.503906 C 114.359375 86.488281 114.800781 86.554688 115.226562 86.699219 C 115.65625 86.847656 116.046875 87.066406 116.394531 87.359375 C 116.742188 87.648438 117.027344 87.992188 117.25 88.386719 C 117.375 88.621094 117.570312 88.746094 117.832031 88.769531 C 118.390625 88.820312 118.917969 88.960938 119.425781 89.195312 C 119.933594 89.425781 120.390625 89.734375 120.792969 90.117188 C 121.195312 90.503906 121.519531 90.945312 121.773438 91.441406 C 122.023438 91.941406 122.1875 92.464844 122.261719 93.015625 C 122.417969 93.632812 122.417969 94.246094 122.265625 94.859375 C 122.117188 95.472656 121.828125 96.015625 121.402344 96.484375 C 120.945312 96.796875 120.441406 96.988281 119.890625 97.058594 C 119.339844 97.128906 118.804688 97.070312 118.28125 96.886719 C 118.238281 96.71875 118.175781 96.5625 118.097656 96.410156 C 118.015625 96.257812 117.917969 96.117188 117.804688 95.988281 C 117.691406 95.859375 117.566406 95.746094 117.425781 95.648438 C 117.285156 95.546875 117.132812 95.464844 116.976562 95.402344 C 116.816406 95.335938 116.652344 95.292969 116.480469 95.265625 C 116.3125 95.242188 116.140625 95.234375 115.96875 95.25 C 115.800781 95.265625 115.632812 95.296875 115.46875 95.351562 C 115.304688 95.40625 115.152344 95.476562 115.003906 95.566406 C 114.859375 95.65625 114.722656 95.761719 114.601562 95.882812 C 114.480469 96.003906 114.375 96.136719 114.285156 96.28125 C 114.191406 96.429688 114.121094 96.582031 114.066406 96.746094 C 114.011719 96.910156 113.976562 97.074219 113.960938 97.246094 C 113.945312 97.417969 113.949219 97.589844 113.976562 97.757812 C 114 97.929688 114.042969 98.09375 114.105469 98.253906 C 114.171875 98.414062 114.25 98.5625 114.347656 98.703125 C 114.449219 98.84375 114.5625 98.972656 114.6875 99.085938 C 114.816406 99.199219 114.957031 99.296875 115.109375 99.378906 C 115.257812 99.460938 115.417969 99.523438 115.582031 99.570312 C 115.75 99.613281 115.917969 99.636719 116.089844 99.644531 C 116.261719 99.648438 116.429688 99.632812 116.597656 99.597656 C 116.769531 99.5625 116.929688 99.507812 117.085938 99.4375 C 117.242188 99.363281 117.386719 99.273438 117.519531 99.167969 C 117.65625 99.0625 117.773438 98.941406 117.882812 98.804688 C 117.988281 98.671875 118.078125 98.523438 118.148438 98.371094 C 118.609375 98.480469 119.078125 98.539062 119.554688 98.550781 C 119.820312 98.566406 120.085938 98.554688 120.351562 98.515625 C 120.617188 98.476562 120.875 98.410156 121.128906 98.320312 C 121.378906 98.230469 121.621094 98.113281 121.847656 97.976562 C 122.078125 97.835938 122.289062 97.675781 122.488281 97.492188 C 122.683594 97.3125 122.859375 97.109375 123.015625 96.894531 C 123.171875 96.675781 123.304688 96.445312 123.414062 96.199219 C 123.523438 95.957031 123.605469 95.703125 123.664062 95.441406 C 123.722656 95.179688 123.757812 94.914062 123.761719 94.648438 C 124.257812 95.449219 124.589844 96.3125 124.757812 97.242188 C 124.929688 98.167969 124.925781 99.09375 124.746094 100.019531 C 124.632812 100.832031 124.371094 101.589844 123.957031 102.296875 C 123.539062 103 123.007812 103.601562 122.351562 104.09375 C 121.765625 104.511719 121.121094 104.632812 120.421875 104.464844 C 118.84375 104.152344 117.3125 104.289062 115.816406 104.878906 C 115.800781 104.25 115.691406 103.636719 115.492188 103.039062 C 115.292969 102.441406 115.011719 101.882812 114.648438 101.371094 C 114.285156 100.855469 113.855469 100.402344 113.359375 100.015625 C 112.863281 99.625 112.320312 99.316406 111.734375 99.085938 C 111.542969 99.023438 111.355469 99.035156 111.175781 99.125 C 110.992188 99.214844 110.871094 99.355469 110.804688 99.546875 C 110.738281 99.738281 110.75 99.925781 110.839844 100.109375 C 110.925781 100.289062 111.066406 100.414062 111.257812 100.484375 C 111.832031 100.707031 112.34375 101.023438 112.796875 101.441406 C 113.253906 101.855469 113.617188 102.339844 113.890625 102.890625 C 114.164062 103.441406 114.328125 104.023438 114.386719 104.636719 C 114.441406 105.246094 114.386719 105.851562 114.21875 106.441406 C 113.628906 109.433594 111.378906 109.761719 108.007812 109.917969 C 106.882812 109.921875 105.773438 110.058594 104.683594 110.332031 C 101.113281 111.433594 99.457031 116.515625 99.53125 119.046875 C 99.539062 119.246094 99.613281 119.417969 99.757812 119.554688 C 99.898438 119.695312 100.070312 119.765625 100.269531 119.765625 L 100.292969 119.765625 C 100.496094 119.757812 100.667969 119.679688 100.808594 119.53125 C 100.949219 119.382812 101.015625 119.207031 101.007812 119.003906 C 100.949219 116.988281 102.347656 112.601562 105.117188 111.742188 C 106.089844 111.511719 107.078125 111.394531 108.078125 111.394531 C 111.078125 111.246094 114.8125 111.078125 115.664062 106.726562 C 115.679688 106.65625 115.679688 106.589844 115.695312 106.519531 C 117.082031 105.847656 118.539062 105.640625 120.0625 105.894531 C 120.59375 106.027344 121.128906 106.042969 121.671875 105.945312 C 122.210938 105.847656 122.707031 105.644531 123.160156 105.335938 C 123.984375 104.730469 124.660156 103.988281 125.1875 103.113281 C 125.714844 102.238281 126.050781 101.292969 126.199219 100.28125 C 126.761719 97.097656 125.644531 93.789062 123.648438 92.480469 Z M 116.164062 98.160156 C 115.960938 98.160156 115.789062 98.089844 115.648438 97.949219 C 115.503906 97.808594 115.433594 97.636719 115.433594 97.433594 C 115.433594 97.234375 115.503906 97.0625 115.644531 96.917969 C 115.789062 96.777344 115.960938 96.707031 116.160156 96.707031 C 116.363281 96.707031 116.535156 96.777344 116.675781 96.917969 C 116.816406 97.0625 116.890625 97.234375 116.890625 97.433594 C 116.890625 97.632812 116.816406 97.804688 116.675781 97.949219 C 116.535156 98.089844 116.363281 98.160156 116.164062 98.160156 Z M 116.164062 98.160156 "/></g><path style=" stroke:none;fill-rule:nonzero;fill:#004aad;fill-opacity:1;" d="M 92.460938 106.277344 C 92.378906 106.089844 92.242188 105.960938 92.050781 105.890625 C 91.859375 105.820312 91.671875 105.824219 91.484375 105.910156 C 91.300781 105.992188 91.171875 106.128906 91.097656 106.320312 C 91.027344 106.511719 91.035156 106.699219 91.117188 106.886719 C 91.375 107.367188 91.6875 107.800781 92.066406 108.195312 C 92.441406 108.585938 92.863281 108.921875 93.332031 109.195312 C 93.800781 109.472656 94.300781 109.679688 94.828125 109.816406 C 95.351562 109.953125 95.886719 110.015625 96.429688 110.003906 C 97.707031 109.972656 98.933594 109.703125 100.109375 109.199219 C 100.222656 109.320312 100.351562 109.429688 100.492188 109.523438 C 100.632812 109.617188 100.785156 109.695312 100.941406 109.753906 C 101.101562 109.8125 101.265625 109.855469 101.433594 109.875 C 101.601562 109.898438 101.769531 109.898438 101.9375 109.882812 C 102.105469 109.863281 102.269531 109.828125 102.429688 109.773438 C 102.589844 109.71875 102.742188 109.644531 102.882812 109.554688 C 103.027344 109.464844 103.15625 109.359375 103.277344 109.238281 C 103.394531 109.117188 103.5 108.984375 103.585938 108.839844 C 103.675781 108.695312 103.746094 108.539062 103.796875 108.378906 C 103.847656 108.21875 103.882812 108.054688 103.898438 107.886719 C 103.910156 107.714844 103.90625 107.546875 103.882812 107.378906 C 103.855469 107.210938 103.8125 107.050781 103.75 106.894531 C 103.6875 106.734375 103.609375 106.585938 103.511719 106.449219 C 103.414062 106.308594 103.304688 106.183594 103.179688 106.070312 C 103.050781 105.957031 102.914062 105.859375 102.765625 105.777344 C 102.617188 105.695312 102.460938 105.632812 102.296875 105.585938 C 102.136719 105.542969 101.96875 105.515625 101.800781 105.507812 C 101.632812 105.503906 101.464844 105.515625 101.296875 105.546875 C 101.128906 105.578125 100.96875 105.628906 100.816406 105.699219 C 100.660156 105.765625 100.515625 105.851562 100.382812 105.957031 C 100.246094 106.058594 100.125 106.175781 100.019531 106.304688 C 99.910156 106.4375 99.820312 106.578125 99.746094 106.730469 C 99.667969 106.882812 99.613281 107.039062 99.574219 107.207031 C 99.535156 107.371094 99.515625 107.539062 99.519531 107.707031 C 99.519531 107.753906 99.527344 107.796875 99.53125 107.839844 C 94.261719 109.9375 92.535156 106.4375 92.460938 106.277344 Z M 101.726562 106.980469 C 101.925781 106.980469 102.097656 107.050781 102.242188 107.195312 C 102.382812 107.335938 102.453125 107.507812 102.453125 107.707031 C 102.453125 107.910156 102.382812 108.082031 102.238281 108.222656 C 102.097656 108.367188 101.925781 108.4375 101.726562 108.4375 C 101.523438 108.4375 101.351562 108.363281 101.210938 108.222656 C 101.070312 108.078125 100.996094 107.90625 101 107.707031 C 101 107.507812 101.070312 107.335938 101.210938 107.191406 C 101.355469 107.050781 101.523438 106.980469 101.726562 106.980469 Z M 101.726562 106.980469 "/><path style=" stroke:none;fill-rule:nonzero;fill:#004aad;fill-opacity:1;" d="M 94.523438 95.394531 C 94.503906 95.191406 94.414062 95.023438 94.257812 94.890625 C 94.101562 94.761719 93.921875 94.707031 93.71875 94.722656 C 93.511719 94.742188 93.347656 94.832031 93.214844 94.988281 C 93.085938 95.144531 93.027344 95.324219 93.046875 95.53125 C 93.148438 96.253906 93.382812 96.933594 93.742188 97.570312 C 94.105469 98.207031 94.570312 98.753906 95.144531 99.210938 C 96.546875 100.25 98.121094 100.730469 99.867188 100.652344 C 100.492188 100.648438 101.117188 100.605469 101.734375 100.515625 C 102.238281 100.488281 102.734375 100.410156 103.21875 100.285156 C 103.707031 100.160156 104.175781 99.984375 104.628906 99.765625 C 105.082031 99.546875 105.507812 99.285156 105.90625 98.976562 C 106.308594 98.671875 106.671875 98.332031 107.003906 97.953125 C 107.335938 97.578125 107.628906 97.167969 107.878906 96.734375 C 108.132812 96.296875 108.335938 95.839844 108.496094 95.363281 C 108.65625 94.886719 108.769531 94.398438 108.832031 93.898438 C 108.894531 93.402344 108.90625 92.902344 108.871094 92.398438 C 109.027344 92.328125 109.175781 92.238281 109.3125 92.132812 C 109.449219 92.027344 109.570312 91.90625 109.679688 91.773438 C 109.789062 91.636719 109.882812 91.492188 109.957031 91.335938 C 110.03125 91.179688 110.085938 91.015625 110.121094 90.847656 C 110.160156 90.675781 110.175781 90.507812 110.171875 90.332031 C 110.167969 90.160156 110.144531 89.988281 110.097656 89.820312 C 110.054688 89.65625 109.992188 89.496094 109.910156 89.339844 C 109.832031 89.1875 109.730469 89.046875 109.617188 88.917969 C 109.503906 88.789062 109.375 88.671875 109.234375 88.574219 C 109.09375 88.472656 108.941406 88.390625 108.78125 88.328125 C 108.621094 88.261719 108.453125 88.21875 108.28125 88.191406 C 108.109375 88.167969 107.9375 88.160156 107.765625 88.175781 C 107.59375 88.191406 107.425781 88.226562 107.261719 88.28125 C 107.097656 88.335938 106.941406 88.40625 106.792969 88.5 C 106.644531 88.589844 106.511719 88.695312 106.390625 88.820312 C 106.265625 88.941406 106.160156 89.078125 106.070312 89.226562 C 105.980469 89.371094 105.90625 89.527344 105.851562 89.691406 C 105.800781 89.859375 105.765625 90.027344 105.75 90.199219 C 105.738281 90.371094 105.742188 90.542969 105.769531 90.714844 C 105.792969 90.886719 105.839844 91.050781 105.90625 91.210938 C 105.96875 91.371094 106.050781 91.523438 106.152344 91.664062 C 106.253906 91.804688 106.367188 91.933594 106.5 92.046875 C 106.628906 92.160156 106.769531 92.257812 106.925781 92.339844 C 107.078125 92.421875 107.238281 92.484375 107.40625 92.527344 C 107.453125 93.890625 107.164062 98.28125 101.535156 99.058594 C 100.597656 99.269531 99.65625 99.289062 98.710938 99.117188 C 97.765625 98.949219 96.890625 98.597656 96.089844 98.074219 C 95.222656 97.382812 94.699219 96.488281 94.523438 95.394531 Z M 107.953125 89.667969 C 108.15625 89.667969 108.328125 89.742188 108.46875 89.882812 C 108.613281 90.027344 108.683594 90.195312 108.683594 90.398438 C 108.683594 90.597656 108.609375 90.769531 108.46875 90.914062 C 108.328125 91.054688 108.15625 91.125 107.953125 91.125 C 107.753906 91.125 107.582031 91.054688 107.4375 90.910156 C 107.296875 90.769531 107.226562 90.597656 107.226562 90.394531 C 107.226562 90.195312 107.300781 90.023438 107.441406 89.882812 C 107.585938 89.738281 107.757812 89.667969 107.960938 89.667969 Z M 107.953125 89.667969 "/><path style=" stroke:none;fill-rule:nonzero;fill:#004aad;fill-opacity:1;" d="M 117.445312 94.394531 C 118.035156 94.390625 118.605469 94.292969 119.164062 94.097656 C 119.363281 94.039062 119.511719 93.917969 119.609375 93.730469 C 119.707031 93.542969 119.722656 93.351562 119.652344 93.15625 C 119.585938 92.957031 119.460938 92.8125 119.269531 92.722656 C 119.082031 92.632812 118.886719 92.625 118.691406 92.699219 C 115.414062 93.804688 113.386719 90.3125 113.300781 90.160156 C 113.199219 89.984375 113.050781 89.871094 112.855469 89.816406 C 112.660156 89.765625 112.476562 89.789062 112.300781 89.886719 C 112.121094 89.988281 112.007812 90.136719 111.953125 90.332031 C 111.898438 90.527344 111.917969 90.710938 112.019531 90.890625 C 112.566406 91.898438 113.320312 92.710938 114.285156 93.335938 C 115.246094 93.957031 116.300781 94.308594 117.445312 94.394531 Z M 117.445312 94.394531 "/><path style=" stroke:none;fill-rule:nonzero;fill:#004aad;fill-opacity:1;" d="M 96.753906 88.675781 C 96.554688 88.648438 96.371094 88.699219 96.210938 88.824219 C 96.046875 88.945312 95.953125 89.109375 95.925781 89.3125 C 95.855469 89.828125 95.871094 90.34375 95.980469 90.855469 C 96.085938 91.367188 96.277344 91.84375 96.550781 92.289062 C 96.824219 92.734375 97.164062 93.121094 97.570312 93.445312 C 97.980469 93.773438 98.429688 94.019531 98.925781 94.191406 C 98.941406 94.359375 98.976562 94.527344 99.03125 94.6875 C 99.085938 94.851562 99.160156 95.003906 99.25 95.148438 C 99.339844 95.292969 99.449219 95.425781 99.570312 95.542969 C 99.691406 95.664062 99.824219 95.769531 99.972656 95.855469 C 100.117188 95.945312 100.273438 96.015625 100.433594 96.066406 C 100.597656 96.121094 100.765625 96.152344 100.933594 96.164062 C 101.105469 96.179688 101.273438 96.171875 101.441406 96.144531 C 101.613281 96.117188 101.773438 96.074219 101.933594 96.007812 C 102.089844 95.945312 102.238281 95.863281 102.378906 95.761719 C 102.515625 95.664062 102.644531 95.546875 102.753906 95.417969 C 102.867188 95.289062 102.960938 95.152344 103.042969 95 C 103.121094 94.847656 103.183594 94.691406 103.222656 94.523438 C 103.265625 94.359375 103.289062 94.191406 103.292969 94.019531 C 103.296875 93.847656 103.277344 93.679688 103.242188 93.511719 C 103.203125 93.347656 103.148438 93.1875 103.074219 93.03125 C 103 92.878906 102.910156 92.734375 102.800781 92.601562 C 102.695312 92.46875 102.574219 92.351562 102.4375 92.246094 C 102.300781 92.144531 102.15625 92.054688 102 91.984375 C 101.84375 91.917969 101.683594 91.863281 101.515625 91.832031 C 101.347656 91.800781 101.179688 91.789062 101.007812 91.796875 C 100.835938 91.804688 100.667969 91.832031 100.503906 91.878906 C 100.339844 91.925781 100.183594 91.988281 100.035156 92.074219 C 99.886719 92.15625 99.75 92.253906 99.621094 92.371094 C 99.496094 92.484375 99.386719 92.613281 99.289062 92.757812 C 98.976562 92.628906 98.6875 92.453125 98.429688 92.230469 C 98.171875 92.007812 97.957031 91.75 97.785156 91.457031 C 97.613281 91.164062 97.492188 90.851562 97.425781 90.515625 C 97.359375 90.183594 97.347656 89.847656 97.390625 89.507812 C 97.417969 89.304688 97.371094 89.125 97.246094 88.960938 C 97.121094 88.796875 96.957031 88.703125 96.753906 88.675781 Z M 101.109375 93.269531 C 101.308594 93.269531 101.480469 93.339844 101.621094 93.480469 C 101.765625 93.625 101.835938 93.796875 101.835938 93.996094 C 101.835938 94.199219 101.765625 94.371094 101.625 94.511719 C 101.480469 94.652344 101.308594 94.726562 101.109375 94.726562 C 100.910156 94.726562 100.738281 94.65625 100.59375 94.511719 C 100.453125 94.371094 100.382812 94.199219 100.382812 93.996094 C 100.382812 93.796875 100.453125 93.625 100.59375 93.484375 C 100.734375 93.34375 100.90625 93.269531 101.109375 93.269531 Z M 101.109375 93.269531 "/><path style=" stroke:none;fill-rule:nonzero;fill:#004aad;fill-opacity:1;" d="M 109.832031 105.503906 C 110.121094 105.503906 110.402344 105.445312 110.675781 105.335938 C 110.945312 105.222656 111.183594 105.0625 111.390625 104.859375 C 111.59375 104.652344 111.753906 104.414062 111.867188 104.144531 C 111.976562 103.871094 112.035156 103.589844 112.035156 103.300781 C 112.035156 103.007812 111.976562 102.726562 111.867188 102.457031 C 111.753906 102.1875 111.59375 101.949219 111.390625 101.742188 C 111.183594 101.535156 110.945312 101.375 110.675781 101.261719 C 110.402344 101.152344 110.121094 101.097656 109.832031 101.097656 C 109.167969 101.097656 108.617188 101.347656 108.183594 101.851562 C 107.734375 101.636719 107.261719 101.503906 106.765625 101.457031 C 106.265625 101.410156 105.777344 101.449219 105.296875 101.570312 C 104.8125 101.695312 104.363281 101.898438 103.953125 102.179688 C 103.542969 102.460938 103.191406 102.804688 102.898438 103.210938 C 102.78125 103.375 102.738281 103.558594 102.773438 103.757812 C 102.804688 103.960938 102.90625 104.121094 103.070312 104.238281 C 103.238281 104.359375 103.421875 104.398438 103.621094 104.367188 C 103.824219 104.332031 103.980469 104.234375 104.101562 104.070312 C 104.296875 103.800781 104.535156 103.574219 104.8125 103.386719 C 105.089844 103.203125 105.386719 103.070312 105.710938 102.996094 C 106.035156 102.917969 106.363281 102.898438 106.695312 102.9375 C 107.023438 102.976562 107.339844 103.070312 107.636719 103.222656 C 107.636719 103.246094 107.628906 103.269531 107.628906 103.296875 C 107.628906 103.589844 107.683594 103.871094 107.796875 104.140625 C 107.910156 104.410156 108.070312 104.648438 108.273438 104.855469 C 108.480469 105.0625 108.71875 105.21875 108.988281 105.332031 C 109.257812 105.445312 109.539062 105.5 109.832031 105.503906 Z M 109.832031 102.570312 C 110.03125 102.570312 110.203125 102.644531 110.34375 102.785156 C 110.488281 102.925781 110.558594 103.097656 110.558594 103.300781 C 110.558594 103.5 110.488281 103.671875 110.34375 103.816406 C 110.203125 103.957031 110.03125 104.027344 109.828125 104.027344 C 109.628906 104.027344 109.457031 103.957031 109.316406 103.8125 C 109.171875 103.671875 109.101562 103.5 109.101562 103.296875 C 109.105469 103.097656 109.175781 102.925781 109.316406 102.785156 C 109.460938 102.644531 109.628906 102.570312 109.832031 102.570312 Z M 109.832031 102.570312 "/><g style="fill:#1a1a1a;fill-opacity:1;"><g transform="translate(48.360806, 144.515904)"><path style="stroke:none" d="M 9.59375 -15.5625 C 12.382812 -15.5625 14.515625 -14.90625 15.984375 -13.59375 C 17.453125 -12.289062 18.1875 -10.296875 18.1875 -7.609375 L 18.1875 -6.625 L 6.78125 -6.625 C 6.78125 -5.53125 7.023438 -4.703125 7.515625 -4.140625 C 8.003906 -3.585938 8.773438 -3.3125 9.828125 -3.3125 C 10.785156 -3.3125 11.488281 -3.515625 11.9375 -3.921875 C 12.394531 -4.328125 12.625 -4.863281 12.625 -5.53125 L 18.1875 -5.53125 C 18.1875 -3.6875 17.484375 -2.242188 16.078125 -1.203125 C 14.679688 -0.171875 12.640625 0.34375 9.953125 0.34375 C 7.117188 0.34375 4.921875 -0.3125 3.359375 -1.625 C 1.804688 -2.945312 1.03125 -4.941406 1.03125 -7.609375 C 1.03125 -10.222656 1.789062 -12.203125 3.3125 -13.546875 C 4.832031 -14.890625 6.925781 -15.5625 9.59375 -15.5625 Z M 9.828125 -11.90625 C 8.023438 -11.90625 7.015625 -11.050781 6.796875 -9.34375 L 12.390625 -9.34375 C 12.390625 -10.125 12.164062 -10.742188 11.71875 -11.203125 C 11.269531 -11.671875 10.640625 -11.90625 9.828125 -11.90625 Z M 9.828125 -11.90625 "/></g></g><g style="fill:#1a1a1a;fill-opacity:1;"><g transform="translate(67.584834, 144.515904)"><path style="stroke:none" d="M 8.703125 -3.890625 L 15.421875 -3.890625 L 15.421875 0 L 0.578125 0 L 0.578125 -1.875 L 6.96875 -11.328125 L 0.921875 -11.328125 L 0.921875 -15.21875 L 15.15625 -15.21875 L 15.15625 -13.4375 Z M 8.703125 -3.890625 "/></g></g><g style="fill:#1a1a1a;fill-opacity:1;"><g transform="translate(83.609641, 144.515904)"><path style="stroke:none" d="M 11.765625 -15.5625 C 13.816406 -15.5625 15.398438 -14.890625 16.515625 -13.546875 C 17.628906 -12.203125 18.1875 -10.210938 18.1875 -7.578125 C 18.1875 -4.960938 17.628906 -2.988281 16.515625 -1.65625 C 15.398438 -0.320312 13.816406 0.34375 11.765625 0.34375 C 9.992188 0.34375 8.570312 -0.234375 7.5 -1.390625 L 7.5 5.671875 L 1.765625 5.671875 L 1.765625 -15.21875 L 6.421875 -15.21875 L 6.921875 -13.0625 C 8.035156 -14.726562 9.648438 -15.5625 11.765625 -15.5625 Z M 9.96875 -11.328125 C 9.125 -11.328125 8.488281 -11.03125 8.0625 -10.4375 C 7.644531 -9.84375 7.4375 -9.0625 7.4375 -8.09375 L 7.4375 -7.15625 C 7.4375 -6.1875 7.644531 -5.398438 8.0625 -4.796875 C 8.488281 -4.191406 9.125 -3.890625 9.96875 -3.890625 C 11.625 -3.890625 12.453125 -4.878906 12.453125 -6.859375 L 12.453125 -8.390625 C 12.453125 -10.347656 11.625 -11.328125 9.96875 -11.328125 Z M 9.96875 -11.328125 "/></g></g><g style="fill:#1a1a1a;fill-opacity:1;"><g transform="translate(102.833669, 144.515904)"><path style="stroke:none" d="M 8.703125 -3.890625 L 15.421875 -3.890625 L 15.421875 0 L 0.578125 0 L 0.578125 -1.875 L 6.96875 -11.328125 L 0.921875 -11.328125 L 0.921875 -15.21875 L 15.15625 -15.21875 L 15.15625 -13.4375 Z M 8.703125 -3.890625 "/></g></g><g style="fill:#1a1a1a;fill-opacity:1;"><g transform="translate(118.858476, 144.515904)"><path style="stroke:none" d="M 1.125 -5.65625 L 1.125 -10.203125 L 8.46875 -10.203125 L 8.46875 -5.65625 Z M 1.125 -5.65625 "/></g></g><g style="fill:#1a1a1a;fill-opacity:1;"><g transform="translate(128.456087, 144.515904)"><path style="stroke:none" d="M 7.5 -13.8125 C 8.59375 -14.976562 10.015625 -15.5625 11.765625 -15.5625 C 13.816406 -15.5625 15.398438 -14.894531 16.515625 -13.5625 C 17.628906 -12.226562 18.1875 -10.253906 18.1875 -7.640625 C 18.1875 -5.003906 17.628906 -3.015625 16.515625 -1.671875 C 15.398438 -0.328125 13.816406 0.34375 11.765625 0.34375 C 9.648438 0.34375 8.035156 -0.488281 6.921875 -2.15625 L 6.421875 0 L 1.765625 0 L 1.765625 -20.90625 L 7.5 -20.90625 Z M 9.96875 -11.328125 C 9.125 -11.328125 8.488281 -11.023438 8.0625 -10.421875 C 7.644531 -9.816406 7.4375 -9.035156 7.4375 -8.078125 L 7.4375 -7.125 C 7.4375 -6.15625 7.644531 -5.375 8.0625 -4.78125 C 8.488281 -4.1875 9.125 -3.890625 9.96875 -3.890625 C 11.625 -3.890625 12.453125 -4.867188 12.453125 -6.828125 L 12.453125 -8.359375 C 12.453125 -10.335938 11.625 -11.328125 9.96875 -11.328125 Z M 9.96875 -11.328125 "/></g></g><g style="fill:#1a1a1a;fill-opacity:1;"><g transform="translate(147.680116, 144.515904)"><path style="stroke:none" d="M 9.59375 -15.5625 C 12.09375 -15.5625 14.113281 -15.03125 15.65625 -13.96875 C 17.207031 -12.90625 17.984375 -11.273438 17.984375 -9.078125 L 12.421875 -9.078125 C 12.421875 -10.804688 11.476562 -11.671875 9.59375 -11.671875 C 7.71875 -11.671875 6.78125 -10.585938 6.78125 -8.421875 L 6.78125 -6.78125 C 6.78125 -4.625 7.757812 -3.546875 9.71875 -3.546875 C 11.675781 -3.546875 12.65625 -4.429688 12.65625 -6.203125 L 17.984375 -6.203125 C 17.984375 -3.992188 17.207031 -2.347656 15.65625 -1.265625 C 14.113281 -0.191406 12.09375 0.34375 9.59375 0.34375 C 6.925781 0.34375 4.832031 -0.328125 3.3125 -1.671875 C 1.789062 -3.015625 1.03125 -4.992188 1.03125 -7.609375 C 1.03125 -10.222656 1.789062 -12.203125 3.3125 -13.546875 C 4.832031 -14.890625 6.925781 -15.5625 9.59375 -15.5625 Z M 9.59375 -15.5625 "/></g></g><g style="fill:#1a1a1a;fill-opacity:1;"><g transform="translate(166.904144, 144.515904)"><path style="stroke:none" d="M 1.9375 -17.015625 L 1.9375 -20.90625 L 7.671875 -20.90625 L 7.671875 -17.015625 Z M 1.9375 0 L 1.9375 -15.21875 L 7.671875 -15.21875 L 7.671875 0 Z M 1.9375 0 "/></g></g><path style="fill:none;stroke-width:2;stroke-linecap:butt;stroke-linejoin:miter;stroke:#000000;stroke-opacity:1;stroke-miterlimit:4;" d="M 0.00109422 1.001719 L 16.378741 1.001719 " transform="matrix(0.733422,-0.000000000000001182,0.000000000000001182,0.733422,133.460135,99.425474)"/><path style="fill:none;stroke-width:2;stroke-linecap:round;stroke-linejoin:round;stroke:#000000;stroke-opacity:1;stroke-miterlimit:4;" d="M 12.378867 -2.002181 L 16.378741 1.001719 L 12.378867 4.000293 " transform="matrix(0.733422,-0.000000000000001182,0.000000000000001182,0.733422,133.460135,99.425474)"/></g></svg>